<?xml version="1.0" encoding="utf-8"?>
<!-- Generated by IcoMoon.io -->
<!DOCTYPE svg PUBLIC "-//W3C//DTD SVG 1.1//EN" "http://www.w3.org/Graphics/SVG/1.1/DTD/svg11.dtd">
<svg version="1.1" xmlns="http://www.w3.org/2000/svg" xmlns:xlink="http://www.w3.org/1999/xlink" width="341" height="512" viewBox="0 0 341 512">
<path fill="#e0311d" d="M277.955 81.894c0 0 7.236 30.669-15.912 34.917-16.119 2.882-42.112-13.104-55.211-29.053-16.129-19.668-14.089-35.124-1.556-48.859 18.871-20.832 51.11-12.787 51.11-12.787s-59.082-51.883-120.69-9.381c-54.838 37.761-39.096 89.221 10.357 134.117 44.652 40.606 9.036 85.115-35.934 79.316-30.797-3.899-43.377-28.63-36.004-43.805 6.403-12.994 28.487-20.97 28.487-20.97s-25.398-10.328-55.289 0.948c-26.83 10.117-49.002 32.321-47.211 87.886v257.776c0 0 27.75-34.24 60.347-69.056 36.569-39.234 53.254-65.793 90.772-62.663 70.994 4.387 122.338-27.152 157.218-77.755 67.031-97.336 14.545-206.091-30.485-220.632z"></path>
</svg>
